/* XPM */
static char * bitcoin32_xpm[] = {
"32 32 6 1",
" 	c None",
".	c #F2941B",
"+	c #313333",
"@	c #303233",
"#	c #F4951B",
"$	c #F3941B",
"                                ",
"                                ",
"               . +              ",
"              .. ++             ",
"             ... +++            ",
"            .... ++++           ",
"            .... +++++          ",
"           ..... @+++++         ",
"          ......  ++++++        ",
"          ......  ++++++++++++++",
"         ......    ++++++++++++ ",
"        ......      ++++++++++  ",
"       .......       +++++++++  ",
"       ......         +++++++   ",
"      ......          ++++++    ",
"     ......          +++++++    ",
"    .......          ++++++     ",
"    ......          ++++++      ",
"   .......         ++++++       ",
"  .........       +++++++       ",
"  ..........      ++++++        ",
" ............    ++++++         ",
"..............  +++++++         ",
"        ......  ++++++          ",
"         .....# +++++           ",
"          ....$ ++++            ",
"           .... ++++            ",
"            ... +++             ",
"             .. ++              ",
"              . ++              ",
"                                ",
"                                "};
