/* XPM */
static char * bitcoin16_xpm[] = {
"16 16 7 1",
" 	c None",
".	c #F6961B",
"+	c #313333",
"@	c #F2941B",
"#	c #F3951B",
"$	c #303333",
"%	c #2E3233",
"                ",
"                ",
"                ",
"       . +      ",
"      @# ++     ",
"     @@@ +++    ",
"     @@   ++++  ",
"    @@@    +++  ",
"   @@@    +++   ",
"  @@@    +++    ",
"  @@@@   ++     ",
"    @@@ +++     ",
"     @@ $+      ",
"      @ %       ",
"                ",
"                "};
