/* XPM */
static char * straks64_xpm[] = {
"64 64 3 1",
" 	c None",
".	c #F2941B",
"+	c #313333",
"                                                                ",
"                                                                ",
"                                                                ",
"                                                                ",
"                                                                ",
"                                                                ",
"                              .   +                             ",
"                             ..   ++                            ",
"                             ..   +++                           ",
"                            ...   ++++                          ",
"                           .....  +++++                         ",
"                           .....  ++++++                        ",
"                          ......  +++++++                       ",
"                         .......  ++++++++                      ",
"                         .......  +++++++++                     ",
"                        ........  ++++++++++                    ",
"                       .........   ++++++++++                   ",
"                      ..........   +++++++++++                  ",
"                      ..........   ++++++++++++                 ",
"                     ...........   +++++++++++++                ",
"                    ...........     +++++++++++++++++++++++++   ",
"                    ...........      +++++++++++++++++++++++    ",
"                   ...........        +++++++++++++++++++++     ",
"                  ...........          ++++++++++++++++++++     ",
"                  ...........           ++++++++++++++++++      ",
"                 ...........             ++++++++++++++++       ",
"                ...........               ++++++++++++++        ",
"               ............                +++++++++++++        ",
"               ...........                  +++++++++++         ",
"              ...........                  +++++++++++          ",
"             ...........                   +++++++++++          ",
"             ...........                  +++++++++++           ",
"            ...........                  +++++++++++            ",
"           ...........                  +++++++++++             ",
"          ............                  +++++++++++             ",
"          ...........                  +++++++++++              ",
"         ...........                  +++++++++++               ",
"        .............                ++++++++++++               ",
"        ..............               +++++++++++                ",
"       ................             +++++++++++                 ",
"      ..................           ++++++++++++                 ",
"      ...................          +++++++++++                  ",
"     .....................        +++++++++++                   ",
"    .......................      +++++++++++                    ",
"    ........................     +++++++++++                    ",
"                .............   +++++++++++                     ",
"                 ............   ++++++++++                      ",
"                  ...........   ++++++++++                      ",
"                   ..........   +++++++++                       ",
"                    ..........  ++++++++                        ",
"                     .........  +++++++                         ",
"                      ........  +++++++                         ",
"                       .......  ++++++                          ",
"                        ......  +++++                           ",
"                         .....  +++++                           ",
"                          ....   +++                            ",
"                           ...   ++                             ",
"                            ..   ++                             ",
"                             .   +                              ",
"                                                                ",
"                                                                ",
"                                                                ",
"                                                                ",
"                                                                "};
