<?xml version="1.0" standalone="no"?>
<!DOCTYPE svg PUBLIC "-//W3C//DTD SVG 20010904//EN"
 "http://www.w3.org/TR/2001/REC-SVG-20010904/DTD/svg10.dtd">
<svg version="1.0" xmlns="http://www.w3.org/2000/svg"
 width="73728.000000pt" height="73728.000000pt" viewBox="0 0 73728.000000 73728.000000"
 preserveAspectRatio="xMidYMid meet">
<metadata>
Created by potrace 1.13, written by Peter Selinger 2001-2015
</metadata>
<g transform="translate(0.000000,73728.000000) scale(8.219398,-8.219398)"
fill="#000000" stroke="none">
<path d="M4127 4842 l-2887 -2887 348 -348 c191 -191 352 -347 357 -347 13 0
5765 5752 5765 5765 0 6 -156 166 -348 358 l-347 347 -2888 -2888z m3041 2335
l152 -152 -2688 -2688 -2687 -2687 -152 152 -151 153 2681 2687 c1475 1478
2684 2687 2687 2688 3 0 74 -69 158 -153z"/>
<path d="M4374 7006 c-33 -8 -90 -28 -125 -46 -58 -29 -220 -188 -1771 -1738
-1840 -1840 -1771 -1767 -1836 -1940 -40 -105 -57 -198 -56 -317 0 -234 83
-429 262 -615 l81 -85 1984 1985 c2175 2177 2021 2013 2054 2175 48 238 -97
487 -328 564 -85 27 -188 34 -265 17z m214 -303 c66 -37 96 -91 100 -177 2
-54 -1 -79 -15 -103 -22 -40 -3723 -3744 -3733 -3738 -4 3 -20 35 -35 72 -23
56 -29 88 -33 178 -5 133 7 200 55 298 34 69 104 141 1727 1765 930 931 1705
1701 1721 1709 68 37 144 35 213 -4z"/>
<path d="M6044 4738 c-1934 -1935 -1972 -1974 -2008 -2048 -89 -185 -67 -385
61 -545 85 -108 233 -177 378 -177 90 0 141 11 224 49 49 23 254 224 1769
1737 1266 1265 1726 1730 1761 1782 189 281 190 659 2 947 -51 78 -186 227
-205 227 -6 0 -898 -888 -1982 -1972z m1999 1505 c35 -79 46 -134 47 -228 0
-145 -39 -256 -131 -370 -26 -33 -789 -801 -1696 -1707 -1185 -1184 -1660
-1652 -1692 -1668 -36 -18 -57 -21 -107 -18 -78 5 -137 42 -174 108 -31 56
-34 147 -6 200 16 31 3712 3740 3727 3740 4 0 18 -26 32 -57z"/>
</g>
</svg>
